<svg width="15" height="15" viewBox="0 0 15 15" fill="none" xmlns="http://www.w3.org/2000/svg">
<g clip-path="url(#clip0_101_2)">
<path d="M14.6636 11.8542L12.3471 9.53752C11.8858 9.07802 11.1216 9.09209 10.6441 9.56958L9.47718 10.7365C9.40351 10.6957 9.32717 10.6533 9.24691 10.6083C8.50999 10.2 7.50126 9.64029 6.43974 8.57803C5.37526 7.51362 4.81485 6.50327 4.40541 5.76583C4.36194 5.68764 4.32063 5.61241 4.27983 5.54089L5.06311 4.75865L5.44812 4.37312C5.92642 3.89482 5.93967 3.13087 5.47914 2.67012L3.16264 0.353099C2.7024 -0.107136 1.93793 -0.0931425 1.45963 0.385159L0.806745 1.04175L0.824736 1.05952C0.605873 1.3388 0.422771 1.66102 0.286833 2.00842C0.16126 2.33909 0.0830734 2.65472 0.0473118 2.9708C-0.258475 5.50668 0.900258 7.82415 4.04505 10.9692C8.39204 15.3159 11.8953 14.9876 12.0464 14.9715C12.3758 14.9323 12.691 14.8535 13.0117 14.729C13.3562 14.5944 13.6782 14.4118 13.9571 14.1935L13.9714 14.2059L14.6328 13.5583C15.1101 13.0801 15.1239 12.3161 14.6636 11.8542ZM14.1183 13.0433L13.8268 13.3342L13.7107 13.4458C13.5279 13.6226 13.2114 13.8708 12.7493 14.0515C12.487 14.1525 12.2284 14.2174 11.9652 14.2487C11.9321 14.2519 8.63711 14.533 4.55904 10.4553C1.09158 6.98794 0.535905 4.98996 0.768836 3.05483C0.798008 2.79836 0.862349 2.54025 0.965191 2.27052C1.14748 1.80577 1.39551 1.48962 1.57092 1.30652L1.97392 0.899518C2.16813 0.704791 2.47103 0.689909 2.64857 0.867458L4.965 3.18389C5.14226 3.36166 5.12826 3.66456 4.93376 3.85988L3.36936 5.42272L3.51374 5.66572C3.594 5.80114 3.67885 5.95293 3.76947 6.11781C4.1998 6.8939 4.78856 7.95624 5.9256 9.09224C7.05968 10.2269 8.12046 10.8152 8.89418 11.2444C9.06136 11.3368 9.21404 11.4219 9.35101 11.5035L9.59453 11.6479L11.1579 10.084C11.3529 9.8898 11.6569 9.87544 11.8344 10.0525L14.1498 12.3684C14.3268 12.5459 14.3128 12.8488 14.1183 13.0433Z" fill="#010002"/>
</g>
<defs>
<clipPath id="clip0_101_2">
<rect width="15" height="15" fill="white"/>
</clipPath>
</defs>
</svg>
